<svg id="ads_click_black_24dp" xmlns="http://www.w3.org/2000/svg" width="24" height="24" viewBox="0 0 24 24">
  <rect id="Rectangle_69" data-name="Rectangle 69" width="24" height="24" fill="none"/>
  <path id="Path_103" data-name="Path 103" d="M12,18a6.259,6.259,0,0,1-6-6,6,6,0,0,1,6-6,6.259,6.259,0,0,1,6,6l-2-1a4.048,4.048,0,0,0-4-3,4,4,0,0,0-4,4,4.048,4.048,0,0,0,3,4Zm10-6c0,.3.03.7,0,1l-2-1c.01-.1,0,.1,0,0a8,8,0,1,0-8,8c.1,0-.1.01,0,0l1,2c-.3.03-.7,0-1,0A10,10,0,1,1,22,12Zm-4,4,4-1L12,12l3,10,1-4,5,5,2-2Z" fill="#e41b51"/>
</svg>
